<?xml version="1.0" standalone="no"?><!DOCTYPE svg PUBLIC "-//W3C//DTD SVG 1.1//EN" "http://www.w3.org/Graphics/SVG/1.1/DTD/svg11.dtd"><svg t="1677565081950" class="icon" viewBox="0 0 1024 1024" version="1.1" xmlns="http://www.w3.org/2000/svg" p-id="2927" xmlns:xlink="http://www.w3.org/1999/xlink" width="128" height="128"><path d="M154.112 916.48c8.192-62.464 165.376-112.64 357.888-112.64s349.696 50.176 357.888 112.64" fill="#EBF7E0" p-id="2928"></path><path d="M455.68 814.08c-5.12 0-10.24-2.56-13.312-7.68-60.416-104.448-78.848-194.048-57.856-282.624 12.8-55.296 46.592-100.352 78.848-143.872C496.128 335.872 527.36 294.4 527.36 250.88c0-83.968-65.536-141.312-66.56-141.824-5.632-5.12-7.168-13.312-3.072-19.456 3.584-6.656 11.776-9.216 18.944-6.656 5.632 2.048 142.848 56.32 142.848 188.416 0 90.112-25.088 144.384-47.104 192.512-12.288 27.136-24.064 52.736-29.696 81.92-17.408 91.136 54.784 194.56 82.432 233.472 3.072 4.608 5.632 8.192 7.68 11.264 4.608 7.168 2.56 16.384-4.096 21.504-7.168 4.608-16.384 2.56-21.504-4.096-2.048-2.56-4.096-6.144-7.168-10.24-29.184-41.984-107.008-153.088-87.04-257.024 6.144-32.768 18.944-59.904 32.256-89.088 22.016-47.104 44.544-96.256 44.544-179.712 0-51.2-26.112-89.088-54.272-115.2C547.84 181.76 558.08 214.016 558.08 250.88c0 53.76-33.792 99.328-70.144 147.456-30.72 40.96-61.952 83.456-73.728 132.608-18.944 80.384-1.536 162.816 54.784 260.096 4.096 7.168 1.536 16.896-5.632 20.992-2.56 1.536-5.12 2.048-7.68 2.048zM921.6 931.84H102.4c-8.704 0-15.36-6.656-15.36-15.36s6.656-15.36 15.36-15.36h819.2c8.704 0 15.36 6.656 15.36 15.36s-6.656 15.36-15.36 15.36z" fill="#2F5E2A" p-id="2929"></path><path d="M662.016 664.576c-23.04 0-41.984-6.656-53.248-13.824-2.56-1.536-4.608-3.584-5.632-6.144-13.312-27.136-25.6-91.136 24.576-141.312 58.88-58.88 170.496-67.584 175.104-68.096 4.608-0.512 8.704 1.024 11.776 4.096 3.072 3.072 4.608 7.168 4.608 11.776 0 4.608-4.096 112.128-63.488 171.52-31.744 31.744-65.536 41.984-93.696 41.984z m-33.28-37.888c13.312 6.144 58.368 20.992 105.472-26.112 37.376-37.376 49.152-101.376 52.736-132.608-32.256 4.608-99.84 18.944-137.728 56.832-39.936 39.936-26.112 87.552-20.48 101.888zM402.944 448c-27.648 0-59.392-8.704-87.04-36.352-58.88-58.88-67.584-170.496-67.584-175.104-0.512-4.096 1.024-8.704 4.096-11.776 3.072-3.072 7.168-4.608 11.776-4.608 4.608 0 112.128 4.096 171.52 63.488 58.368 58.368 44.032 121.856 28.16 146.944-1.536 2.56-3.584 4.608-6.144 5.632-12.288 6.144-32.256 11.776-54.784 11.776z m47.616-25.6z m0 0zM281.088 252.416c4.608 32.256 18.944 99.84 56.832 137.728 39.936 39.936 87.552 26.112 101.888 20.48 6.144-13.312 20.992-58.368-26.112-105.472-37.888-37.376-101.888-49.152-132.608-52.736z" fill="#7BA86C" p-id="2930"></path><path d="M869.888 931.84c-7.68 0-14.336-5.632-15.36-13.312-6.144-48.128-145.408-99.328-343.04-99.328s-336.384 51.2-343.04 99.328c-1.024 8.192-8.704 14.336-17.408 13.312-8.192-1.024-14.336-8.704-13.312-17.408C148.48 832.512 337.92 788.48 510.976 788.48s362.496 44.032 373.248 125.952c1.024 8.192-4.608 15.872-13.312 17.408h-1.024z" fill="#2F5E2A" p-id="2931"></path></svg>